<?xml version="1.0" encoding="utf-8"?>
<?xml-stylesheet type="text/xsl" href="rss1.xsl"?>
<rss version="2.0" xmlns:atom="http://www.w3.org/2005/Atom" xmlns:content="http://purl.org/rss/1.0/modules/content/" xmlns:dc="http://purl.org/dc/elements/1.1/" xmlns:media="http://search.yahoo.com/mrss/">
<channel>
 <title>Getty</title>
 <link>http://www.gettyimg.com/</link>
 <atom:link href="http://www.gettyimg.com/" rel="self" type="application/rss+xml" />

 
                <item>
                <title><![CDATA[【PRORES HD】Taylor Swift feat. Brendon Urie - ME! MASTER ProRes 1080p LPCM2.0]]></title>
                <link><![CDATA[https://sharemania.us/threads/taylor-swift-feat-brendon-urie-me-master-prores-1080p-lpcm2-0.232881/]]></link>
                <description><![CDATA[<article>
<blockquote class="messageText SelectQuoteContainer ugc baseHtml">
<img src="https://www.rollingstone.com/wp-content/uploads/2019/04/TS-mv-cutout-2-1.jpg" class="bbCodeImage LbImage" alt="[​IMG]" data-url="https://www.rollingstone.com/wp-content/uploads/2019/04/TS-mv-cutout-2-1.jpg" style=""> <br>
<img src="https://i.postimg.cc/mZVv43PR/Taylor-Swift-feat-Brendon-Urie-ME-MASTER-Pro-Res-1080p-LPCM2-0-mov.jpg" class="bbCodeImage LbImage" alt="[​IMG]" data-url="https://i.postimg.cc/mZVv43PR/Taylor-Swift-feat-Brendon-Urie-ME-MASTER-Pro-Res-1080p-LPCM2-0-mov.jpg" style=""> <br>
<div class="ToggleTriggerAnchor bbCodeSpoilerContainer">
<button type="button" class="button bbCodeSpoilerButton ToggleTrigger Tooltip JsOnly" data-target="> .SpoilerTarget"><span>Spoiler: <span class="SpoilerTitle">Media Info</span></span></button>
<div class="SpoilerTarget bbCodeSpoilerText">General<br>
Complete name : Taylor Swift feat. Brendon Urie - ME! MASTER ProRes 1080p LPCM2.0.mov<br>
Format : MPEG-4<br>
Format profile : QuickTime<br>
Codec ID : qt 2005.03 (qt )<br>
File size : 5.01 GiB<br>
Duration : 4 min 12 s<br>
Overall bit rate mode : Variable<br>
Overall bit rate : 170 Mb/s<br>
Frame rate : 24.000 FPS<br>
Encoded date : 2019-04-26 05:30:55 UTC<br>
Tagged date : 2019-04-26 05:35:02 UTC<br>
Writing library : Apple QuickTime<br>
<br>
Video<br>
ID : 1<br>
Format : ProRes<br>
Format version : Version 0<br>
Format profile : 422 HQ<br>
Codec ID : apch<br>
Duration : 4 min 12 s<br>
Bit rate mode : Variable<br>
Bit rate : 168 Mb/s<br>
Width : 1 920 pixels<br>
Height : 1 080 pixels<br>
Display aspect ratio : 16:9<br>
Frame rate mode : Constant<br>
Frame rate : 24.000 FPS<br>
Color space : YUV<br>
Chroma subsampling : 4:2:2<br>
Scan type : Progressive<br>
Bits/(Pixel*Frame) : 3.372<br>
Stream size : 4.94 GiB (99%)<br>
Writing library : arh0<br>
Language : English<br>
Encoded date : 2019-04-26 05:30:55 UTC<br>
Tagged date : 2019-04-26 05:35:02 UTC<br>
Color primaries : BT.709<br>
Transfer characteristics : BT.709<br>
Matrix coefficients : BT.709<br>
<br>
Audio<br>
ID : 2<br>
Format : PCM<br>
Format settings : Little / Signed<br>
Codec ID : in24<br>
Duration : 4 min 12 s<br>
Bit rate mode : Constant<br>
Bit rate : 2 304 kb/s<br>
Channel(s) : 2 channels<br>
Channel layout : L R<br>
Sampling rate : 48.0 kHz<br>
Bit depth : 24 bits<br>
Stream size : 69.5 MiB (1%)<br>
Language : English<br>
Encoded date : 2019-04-26 05:30:55 UTC<br>
Tagged date : 2019-04-26 05:35:04 UTC</div>
</div>
<div class="bbCodeBlock bbCodeVfcHH HiddenContent">
<div class="attribution type">Hidden Content:</div>
<blockquote>You must either reply or click 'Like' to see the hidden information contained here.</blockquote>
</div>
<div class="messageTextEndMarker">&nbsp;</div>
</blockquote>
</article>]]></description>
                <author><![CDATA[szymek04sawicki]]></author>
                </item>

                </channel></rss>